<?xml version="1.0" encoding="UTF-8" standalone="no"?>
<!DOCTYPE svg PUBLIC "-//W3C//DTD SVG 1.1//EN" "http://www.w3.org/Graphics/SVG/1.1/DTD/svg11.dtd">
<svg width="100%" height="100%" viewBox="0 0 116 139" version="1.1" xmlns="http://www.w3.org/2000/svg" xmlns:xlink="http://www.w3.org/1999/xlink" xml:space="preserve" xmlns:serif="http://www.serif.com/" style="fill-rule:evenodd;clip-rule:evenodd;stroke-linejoin:round;stroke-miterlimit:2;">
    <g transform="matrix(1.33333,0,0,1.33333,-446.579,-292.205)">
        <g id="Layer1" transform="matrix(0.20184,0,0,0.20184,297.352,210.582)">
            <g id="tab-top" serif:id="tab top" transform="matrix(0.685439,0,0,1.01296,192.466,0.158483)">
                <path d="M525.363,142.075L605.496,142.075L605.496,87.047L525.363,87.047" style="fill:rgb(253,96,80);"/>
            </g>
            <g transform="matrix(0.685439,0,0,1.01296,192.466,0.158483)">
                <path d="M525.363,149.43L605.496,149.43C611.498,149.43 616.364,146.137 616.364,142.075L616.364,87.047C616.364,82.985 611.498,79.692 605.496,79.692L525.363,79.692C519.364,79.692 514.494,82.987 514.494,87.047C514.494,91.106 519.364,94.401 525.363,94.401L594.627,94.401C594.627,94.401 594.627,134.721 594.627,134.721C594.627,134.721 525.363,134.721 525.363,134.721C519.364,134.721 514.494,138.016 514.494,142.075C514.494,146.134 519.364,149.43 525.363,149.43Z" style="fill:rgb(5,42,117);"/>
            </g>
            <g id="tab-bot" serif:id="tab bot" transform="matrix(0.685439,0,0,2.24327,192.466,-1.06944)">
                <path d="M525.363,142.075L605.496,142.075L605.496,87.047L525.363,87.047" style="fill:rgb(253,96,80);"/>
            </g>
            <g transform="matrix(0.685439,0,0,2.24327,192.466,-1.06944)">
                <path d="M525.363,145.766L605.496,145.766C612.167,145.766 617.576,144.114 617.576,142.075L617.576,87.047C617.576,85.008 612.167,83.355 605.496,83.355L525.363,83.355C518.695,83.355 513.282,85.009 513.282,87.047C513.282,89.084 518.695,90.738 525.363,90.738L593.415,90.738C593.415,90.738 593.415,138.384 593.415,138.384C593.415,138.384 525.363,138.384 525.363,138.384C518.695,138.384 513.282,140.038 513.282,142.075C513.282,144.112 518.695,145.766 525.363,145.766Z" style="fill:rgb(5,42,117);"/>
            </g>
            <g id="right---fill-dark" serif:id="right - fill dark" transform="matrix(1.30854,0,0,1,-170.492,0)">
                <rect x="325.226" y="51.136" width="227.344" height="465.899" style="fill:rgb(145,183,6);"/>
            </g>
            <g id="right---fill-light" serif:id="right - fill light" transform="matrix(1,0,0,1,-165.676,0)">
                <path d="M718.246,456.451C711.823,456.984 705.329,457.256 698.772,457.256C570.203,457.256 465.822,352.874 465.822,224.306C465.822,155.599 495.631,93.8 543.024,51.136L718.246,51.136L718.246,456.451Z" style="fill:rgb(177,217,82);"/>
            </g>
            <g id="left" transform="matrix(0.171465,0,0,1.02227,160.341,-9.53073)">
                <path d="M552.529,59.345L552.483,59.345C358.561,59.345 201.356,85.713 201.356,118.24C201.356,234.722 201.356,483.363 201.356,483.363L552.529,483.363" style="fill:rgb(253,143,1);"/>
            </g>
            <g transform="matrix(0.171465,0,0,1.02227,160.341,-9.53073)">
                <path d="M552.529,67.826C552.529,67.826 619.754,50.864 552.483,50.864C330.635,50.864 150.791,81.029 150.791,118.24C150.791,234.722 150.791,483.363 150.791,483.363C150.791,488.047 173.43,491.844 201.356,491.844L552.529,491.844L552.529,474.881L251.922,474.881C251.922,474.882 251.922,118.24 251.922,118.24C251.922,90.397 386.488,67.827 552.483,67.826L552.529,67.826Z" style="fill:rgb(5,42,117);"/>
            </g>
            <g transform="matrix(1.30854,0,0,0.860743,-170.492,7.12103)">
                <path d="M559.111,526.979L559.111,51.136C559.111,45.644 556.182,41.192 552.569,41.192L325.226,41.192C321.613,41.192 318.685,45.644 318.685,51.136L318.685,526.979L331.767,526.979L331.767,61.08C331.767,61.08 546.028,61.08 546.028,61.08L546.028,526.979L559.111,526.979Z" style="fill:rgb(5,42,117);"/>
            </g>
            <g id="bot" transform="matrix(1.38185,0,0,1,-74.4103,0)">
                <path d="M453.724,452.155L218.336,452.155C205.374,452.155 194.866,466.675 194.866,484.587C194.866,484.592 194.866,484.598 194.866,484.603C194.866,502.515 205.374,517.035 218.336,517.035C282.089,517.035 453.724,517.035 453.724,517.035L453.724,452.155Z" style="fill:white;"/>
            </g>
            <g transform="matrix(1.38185,0,0,1,-74.4103,0)">
                <path d="M459.998,452.155C459.998,447.367 457.189,443.485 453.724,443.485L218.336,443.485C201.909,443.485 188.592,461.887 188.592,484.587L188.592,484.603C188.592,507.303 201.909,525.705 218.336,525.705C282.089,525.705 453.724,525.705 453.724,525.705C457.189,525.705 459.998,521.823 459.998,517.035L459.998,452.155ZM447.449,460.825L447.449,508.365C447.449,508.365 218.336,508.365 218.336,508.365C208.839,508.365 201.141,497.726 201.141,484.604C201.141,484.603 201.141,484.587 201.141,484.587C201.141,471.464 208.839,460.826 218.336,460.825L447.449,460.825Z" style="fill:rgb(5,42,117);"/>
            </g>
            <g id="bookmark">
                <g id="fill" transform="matrix(1,0,0,1.28516,0,-128.937)">
                    <path d="M487.696,452.155L424.758,452.155L424.758,525.738L456.227,507.86L487.696,525.738L487.696,452.155" style="fill:rgb(253,96,80);"/>
                </g>
                <g id="outline" transform="matrix(1,0,0,1.28516,0,-128.937)">
                    <path d="M487.696,445.409C487.696,445.409 424.758,445.409 424.758,445.409C419.969,445.409 416.087,448.429 416.087,452.155L416.087,525.738C416.087,528.278 417.92,530.602 420.83,531.753C423.74,532.903 427.234,532.684 429.87,531.187L456.227,516.213C456.227,516.213 482.583,531.187 482.583,531.187C485.219,532.684 488.713,532.903 491.623,531.753C494.533,530.602 496.366,528.278 496.366,525.738L496.366,452.155C496.366,449.252 494.005,446.775 490.696,445.825L490.675,445.818L490.273,445.712L489.861,445.621L489.442,445.546L489.015,445.487L488.582,445.444L488.142,445.418L487.696,445.409ZM479.025,458.902L433.428,458.902C433.428,458.902 433.428,512.459 433.428,512.459L451.114,502.411C454.16,500.681 458.293,500.681 461.339,502.411C461.339,502.411 479.025,512.459 479.025,512.459L479.025,458.902Z" style="fill:rgb(5,42,117);"/>
                </g>
            </g>
            <g id="cover">
                <g transform="matrix(1,0,0,1,1.55743,0)">
                    <path d="M338.064,390.473L466.471,390.473C471.256,390.473 475.141,386.588 475.141,381.803C475.141,377.018 471.256,373.133 466.471,373.133L338.064,373.133C333.279,373.133 329.394,377.018 329.394,381.803C329.394,386.588 333.279,390.473 338.064,390.473Z" style="fill:rgb(253,96,80);"/>
                </g>
                <g id="hat">
                    <g id="fill1" serif:id="fill" transform="matrix(4.95442,0,0,4.95442,-1473.21,-1043.31)">
                        <path d="M369.861,243.227C371.696,240.174 375.041,238.129 378.86,238.129C382.679,238.129 386.024,240.174 387.859,243.227L388.427,243.227L388.427,244.31C388.691,244.284 388.959,244.271 389.23,244.271C393.72,244.271 397.365,247.915 397.365,252.405C397.365,255.99 395.041,259.036 391.819,260.118L391.819,260.118L391.819,275.58L365.901,275.58L365.901,260.118L365.901,260.118C362.68,259.036 360.356,255.99 360.356,252.405C360.356,247.915 364,244.271 368.49,244.271C368.761,244.271 369.029,244.284 369.293,244.31L369.297,244.303L369.297,243.227L369.861,243.227ZM369.297,244.31L369.294,244.31L369.297,244.31L369.297,244.31Z" style="fill:white;"/>
                    </g>
                    <g id="outline1" serif:id="outline" transform="matrix(4.95442,0,0,4.95442,-1473.21,-1043.31)">
                        <path d="M368.245,242.524C362.903,242.654 358.606,247.031 358.606,252.405C358.606,256.304 360.869,259.679 364.151,261.287L364.151,275.58C364.151,276.547 364.935,277.33 365.901,277.33L391.819,277.33C392.785,277.33 393.569,276.547 393.569,275.58L393.569,261.287C396.852,259.679 399.115,256.304 399.115,252.405C399.115,247.031 394.818,242.654 389.475,242.524C387.361,238.853 383.397,236.379 378.86,236.379C374.323,236.379 370.359,238.853 368.245,242.524ZM386.79,244.939C385.399,241.952 382.37,239.879 378.86,239.879C375.351,239.879 372.322,241.952 370.93,244.939C370.654,245.656 369.926,246.131 369.125,246.052C368.916,246.031 368.704,246.021 368.49,246.021C364.966,246.021 362.106,248.881 362.106,252.405C362.106,255.928 364.966,258.789 368.49,258.789C369.81,258.789 371.037,258.388 372.055,257.7C372.855,257.16 373.944,257.371 374.485,258.171C375.025,258.972 374.814,260.06 374.014,260.601C372.436,261.666 370.535,262.289 368.49,262.289C368.207,262.289 367.928,262.277 367.651,262.254L367.651,273.83L390.069,273.83L390.069,262.254C389.793,262.277 389.513,262.289 389.23,262.289C387.185,262.289 385.284,261.666 383.706,260.601C382.906,260.06 382.695,258.972 383.236,258.171C383.776,257.371 384.865,257.16 385.665,257.7C386.683,258.388 387.91,258.789 389.23,258.789C392.754,258.789 395.615,255.928 395.615,252.405C395.615,248.881 392.754,246.021 389.23,246.021C389.016,246.021 388.804,246.031 388.595,246.052C387.795,246.131 387.066,245.656 386.79,244.939Z" style="fill:rgb(5,42,117);"/>
                    </g>
                </g>
            </g>
        </g>
    </g>
</svg>
